<svg id="Calque_1" data-name="Calque 1" xmlns="http://www.w3.org/2000/svg" viewBox="0 0 566.93 566.93"><defs><style>.cls-1{fill:#fff;}.cls-2,.cls-3{fill:#eb5658;}.cls-3{font-size:100px;font-family:DKLemonYellowSun, DK Lemon Yellow Sun;}</style></defs><path class="cls-1" d="M284,109.61A173.85,173.85,0,1,1,161,160.53,172.72,172.72,0,0,1,284,109.61m0-5A178.86,178.86,0,1,0,462.82,283.46,178.85,178.85,0,0,0,284,104.61Z"/><path class="cls-1" d="M107.61,283.49H13.13L69.8,326l-56.67,42.5H126.46v-3.57C115.12,342,108.28,314.84,107.61,283.49Z"/><path class="cls-1" d="M457.43,282h94.49l-56.67,42.5L551.92,367H438.58v-3.57C449.93,340.44,456.77,313.3,457.43,282Z"/><rect class="cls-1" x="100.69" y="224.27" width="371.5" height="116.39"/><path class="cls-2" d="M470.7,225.77V339.16H102.19V225.77H470.7m3-3H99.19V342.16H473.7V222.77Z"/><text class="cls-3" transform="translate(179.52 320.9)">Sogme</text></svg>